<svg xmlns="http://www.w3.org/2000/svg" width="1200" height="360" viewBox="0 0 1200 360" role="img" aria-labelledby="title desc">
  <title id="title">Qian Cheng</title>
  <desc id="desc">Machine learning engineer. Speech, from model to production. A sampled audio waveform animates below the title.</desc>
  <defs>
    <linearGradient id="accent" x1="180" y1="0" x2="1020" y2="0" gradientUnits="userSpaceOnUse">
      <stop offset="0" stop-color="#2997FF"/>
      <stop offset="0.5" stop-color="#A78BFA"/>
      <stop offset="1" stop-color="#FF8A80"/>
    </linearGradient>
  </defs>
  <rect width="1200" height="360" rx="28" fill="#000000"/>
  <text x="600" y="72" text-anchor="middle" fill="#A1A1A6"
        font-family="-apple-system, BlinkMacSystemFont, 'Segoe UI', sans-serif"
        font-size="17" font-weight="600" letter-spacing="4">MACHINE LEARNING ENGINEER</text>
  <text x="600" y="170" text-anchor="middle" fill="#F5F5F7"
        font-family="-apple-system, BlinkMacSystemFont, 'Segoe UI', sans-serif"
        font-size="72" font-weight="700" letter-spacing="-2">Qian Cheng</text>
  <text x="600" y="224" text-anchor="middle" fill="#A1A1A6"
        font-family="-apple-system, BlinkMacSystemFont, 'Segoe UI', sans-serif"
        font-size="28" font-weight="400">Speech, from model to production.</text>
  <g fill="none" stroke="url(#accent)" stroke-linecap="round">
    <path opacity="0.11" stroke-width="8"
          d="M180 275 V281 M200 274 V282 M220 272 V284 M240 269 V287 M260 264 V292 M280 259 V297 M300 266 V290 M320 271 V285 M340 262 V294 M360 254 V302 M380 260 V296 M400 267 V289 M420 271 V285 M440 265 V291 M460 258 V298 M480 262 V294 M500 269 V287 M520 273 V283 M540 267 V289 M560 261 V295 M580 252 V304 M600 259 V297 M620 267 V289 M640 272 V284 M660 264 V292 M680 256 V300 M700 261 V295 M720 269 V287 M740 274 V282 M760 268 V288 M780 259 V297 M800 254 V302 M820 263 V293 M840 270 V286 M860 266 V290 M880 258 V298 M900 267 V289 M920 271 V285 M940 274 V282 M960 271 V285 M980 273 V283 M1000 274 V282 M1020 275 V281">
      <animate attributeName="d" dur="3.8s" repeatCount="indefinite" calcMode="spline"
               keyTimes="0;0.33;0.66;1"
               keySplines="0.45 0 0.55 1;0.45 0 0.55 1;0.45 0 0.55 1"
               values="M180 275 V281 M200 274 V282 M220 272 V284 M240 269 V287 M260 264 V292 M280 259 V297 M300 266 V290 M320 271 V285 M340 262 V294 M360 254 V302 M380 260 V296 M400 267 V289 M420 271 V285 M440 265 V291 M460 258 V298 M480 262 V294 M500 269 V287 M520 273 V283 M540 267 V289 M560 261 V295 M580 252 V304 M600 259 V297 M620 267 V289 M640 272 V284 M660 264 V292 M680 256 V300 M700 261 V295 M720 269 V287 M740 274 V282 M760 268 V288 M780 259 V297 M800 254 V302 M820 263 V293 M840 270 V286 M860 266 V290 M880 258 V298 M900 267 V289 M920 271 V285 M940 274 V282 M960 271 V285 M980 273 V283 M1000 274 V282 M1020 275 V281;
                       M180 275 V281 M200 273 V283 M220 270 V286 M240 266 V290 M260 259 V297 M280 267 V289 M300 272 V284 M320 263 V293 M340 256 V300 M360 261 V295 M380 269 V287 M400 273 V283 M420 267 V289 M440 260 V296 M460 253 V303 M480 258 V298 M500 266 V290 M520 271 V285 M540 264 V292 M560 257 V299 M580 262 V294 M600 268 V288 M620 272 V284 M640 266 V290 M660 259 V297 M680 264 V292 M700 270 V286 M720 261 V295 M740 254 V302 M760 263 V293 M780 271 V285 M800 274 V282 M820 267 V289 M840 259 V297 M860 266 V290 M880 269 V287 M900 262 V294 M920 256 V300 M940 265 V291 M960 271 V285 M980 273 V283 M1000 275 V281 M1020 275 V281;
                       M180 275 V281 M200 274 V282 M220 271 V285 M240 267 V289 M260 262 V294 M280 256 V300 M300 261 V295 M320 268 V288 M340 272 V284 M360 266 V290 M380 259 V297 M400 253 V303 M420 264 V292 M440 271 V285 M460 266 V290 M480 258 V298 M500 263 V293 M520 269 V287 M540 261 V295 M560 254 V302 M580 260 V296 M600 267 V289 M620 272 V284 M640 265 V291 M660 256 V300 M680 262 V294 M700 269 V287 M720 273 V283 M740 267 V289 M760 260 V296 M780 252 V304 M800 259 V297 M820 266 V290 M840 271 V285 M860 264 V292 M880 257 V299 M900 262 V294 M920 269 V287 M940 272 V284 M960 270 V286 M980 273 V283 M1000 274 V282 M1020 275 V281;
                       M180 275 V281 M200 274 V282 M220 272 V284 M240 269 V287 M260 264 V292 M280 259 V297 M300 266 V290 M320 271 V285 M340 262 V294 M360 254 V302 M380 260 V296 M400 267 V289 M420 271 V285 M440 265 V291 M460 258 V298 M480 262 V294 M500 269 V287 M520 273 V283 M540 267 V289 M560 261 V295 M580 252 V304 M600 259 V297 M620 267 V289 M640 272 V284 M660 264 V292 M680 256 V300 M700 261 V295 M720 269 V287 M740 274 V282 M760 268 V288 M780 259 V297 M800 254 V302 M820 263 V293 M840 270 V286 M860 266 V290 M880 258 V298 M900 267 V289 M920 271 V285 M940 274 V282 M960 271 V285 M980 273 V283 M1000 274 V282 M1020 275 V281"/>
    </path>
    <path opacity="1" stroke-width="3"
          d="M180 275 V281 M200 274 V282 M220 272 V284 M240 269 V287 M260 264 V292 M280 259 V297 M300 266 V290 M320 271 V285 M340 262 V294 M360 254 V302 M380 260 V296 M400 267 V289 M420 271 V285 M440 265 V291 M460 258 V298 M480 262 V294 M500 269 V287 M520 273 V283 M540 267 V289 M560 261 V295 M580 252 V304 M600 259 V297 M620 267 V289 M640 272 V284 M660 264 V292 M680 256 V300 M700 261 V295 M720 269 V287 M740 274 V282 M760 268 V288 M780 259 V297 M800 254 V302 M820 263 V293 M840 270 V286 M860 266 V290 M880 258 V298 M900 267 V289 M920 271 V285 M940 274 V282 M960 271 V285 M980 273 V283 M1000 274 V282 M1020 275 V281">
      <animate attributeName="d" dur="3.8s" repeatCount="indefinite" calcMode="spline"
               keyTimes="0;0.33;0.66;1"
               keySplines="0.45 0 0.55 1;0.45 0 0.55 1;0.45 0 0.55 1"
               values="M180 275 V281 M200 274 V282 M220 272 V284 M240 269 V287 M260 264 V292 M280 259 V297 M300 266 V290 M320 271 V285 M340 262 V294 M360 254 V302 M380 260 V296 M400 267 V289 M420 271 V285 M440 265 V291 M460 258 V298 M480 262 V294 M500 269 V287 M520 273 V283 M540 267 V289 M560 261 V295 M580 252 V304 M600 259 V297 M620 267 V289 M640 272 V284 M660 264 V292 M680 256 V300 M700 261 V295 M720 269 V287 M740 274 V282 M760 268 V288 M780 259 V297 M800 254 V302 M820 263 V293 M840 270 V286 M860 266 V290 M880 258 V298 M900 267 V289 M920 271 V285 M940 274 V282 M960 271 V285 M980 273 V283 M1000 274 V282 M1020 275 V281;
                       M180 275 V281 M200 273 V283 M220 270 V286 M240 266 V290 M260 259 V297 M280 267 V289 M300 272 V284 M320 263 V293 M340 256 V300 M360 261 V295 M380 269 V287 M400 273 V283 M420 267 V289 M440 260 V296 M460 253 V303 M480 258 V298 M500 266 V290 M520 271 V285 M540 264 V292 M560 257 V299 M580 262 V294 M600 268 V288 M620 272 V284 M640 266 V290 M660 259 V297 M680 264 V292 M700 270 V286 M720 261 V295 M740 254 V302 M760 263 V293 M780 271 V285 M800 274 V282 M820 267 V289 M840 259 V297 M860 266 V290 M880 269 V287 M900 262 V294 M920 256 V300 M940 265 V291 M960 271 V285 M980 273 V283 M1000 275 V281 M1020 275 V281;
                       M180 275 V281 M200 274 V282 M220 271 V285 M240 267 V289 M260 262 V294 M280 256 V300 M300 261 V295 M320 268 V288 M340 272 V284 M360 266 V290 M380 259 V297 M400 253 V303 M420 264 V292 M440 271 V285 M460 266 V290 M480 258 V298 M500 263 V293 M520 269 V287 M540 261 V295 M560 254 V302 M580 260 V296 M600 267 V289 M620 272 V284 M640 265 V291 M660 256 V300 M680 262 V294 M700 269 V287 M720 273 V283 M740 267 V289 M760 260 V296 M780 252 V304 M800 259 V297 M820 266 V290 M840 271 V285 M860 264 V292 M880 257 V299 M900 262 V294 M920 269 V287 M940 272 V284 M960 270 V286 M980 273 V283 M1000 274 V282 M1020 275 V281;
                       M180 275 V281 M200 274 V282 M220 272 V284 M240 269 V287 M260 264 V292 M280 259 V297 M300 266 V290 M320 271 V285 M340 262 V294 M360 254 V302 M380 260 V296 M400 267 V289 M420 271 V285 M440 265 V291 M460 258 V298 M480 262 V294 M500 269 V287 M520 273 V283 M540 267 V289 M560 261 V295 M580 252 V304 M600 259 V297 M620 267 V289 M640 272 V284 M660 264 V292 M680 256 V300 M700 261 V295 M720 269 V287 M740 274 V282 M760 268 V288 M780 259 V297 M800 254 V302 M820 263 V293 M840 270 V286 M860 266 V290 M880 258 V298 M900 267 V289 M920 271 V285 M940 274 V282 M960 271 V285 M980 273 V283 M1000 274 V282 M1020 275 V281"/>
    </path>
  </g>
  <text x="600" y="330" text-anchor="middle" fill="#86868B"
        font-family="-apple-system, BlinkMacSystemFont, 'Segoe UI', sans-serif"
        font-size="15" font-weight="500" letter-spacing="3">ASR · TTS · SPEECH-TO-SPEECH</text>
</svg>